<?xml version="1.0" encoding="UTF-8" standalone="no"?>
<!DOCTYPE svg PUBLIC "-//W3C//DTD SVG 1.1//EN"
 "http://www.w3.org/Graphics/SVG/1.1/DTD/svg11.dtd">
<!-- Generated by graphviz version 12.2.1 (20241206.2353)
 -->
<!-- Title: RationalitaetsKonzepte Pages: 1 -->
<svg width="864pt" height="306pt"
 viewBox="0.00 0.00 864.00 305.90" xmlns="http://www.w3.org/2000/svg" xmlns:xlink="http://www.w3.org/1999/xlink">
<g id="graph0" class="graph" transform="scale(0.829573 0.829573) rotate(0) translate(4 364.74)">
<title>RationalitaetsKonzepte</title>
<polygon fill="white" stroke="none" points="-4,4 -4,-364.74 1037.5,-364.74 1037.5,4 -4,4"/>
<g id="clust1" class="cluster">
<title>cluster_eco_principle</title>
<polygon fill="#f9f9f9" stroke="lightgrey" points="464,-8 464,-84.5 825,-84.5 825,-8 464,-8"/>
<text text-anchor="middle" x="644.5" y="-67.2" font-family="Times New Roman,serif" font-size="14.00">Das Ökonomische Prinzip (Vermeidung von Verschwendung)</text>
</g>
<g id="clust2" class="cluster">
<title>cluster_homo</title>
<polygon fill="none" stroke="#1976d2" points="500,-119 500,-241.74 784,-241.74 784,-119 500,-119"/>
<text text-anchor="middle" x="642" y="-224.44" font-family="Times New Roman,serif" font-size="14.00" fill="#1976d2">Leitbild: Homo Oeconomicus</text>
</g>
<g id="clust3" class="cluster">
<title>cluster_axioms</title>
<polygon fill="none" stroke="#388e3c" points="488,-276.24 488,-352.74 804,-352.74 804,-276.24 488,-276.24"/>
<text text-anchor="middle" x="646" y="-335.44" font-family="Times New Roman,serif" font-size="14.00">Axiomatische Rationalität (Konsistenz)</text>
</g>
<g id="clust4" class="cluster">
<title>cluster_bounded</title>
<polygon fill="none" stroke="#f57c00" points="8,-8 8,-84.5 456,-84.5 456,-8 8,-8"/>
<text text-anchor="middle" x="232" y="-67.2" font-family="Times New Roman,serif" font-size="14.00">Beschränkte Rationalität</text>
</g>
<!-- Max -->
<g id="node1" class="node">
<title>Max</title>
<polygon fill="#e3f2fd" stroke="black" points="647.88,-52 472.12,-52 472.12,-16 647.88,-16 647.88,-52"/>
<text text-anchor="middle" x="560" y="-37.05" font-family="Arial" font-size="11.00">Maximalprinzip</text>
<text text-anchor="middle" x="560" y="-23.55" font-family="Arial" font-size="11.00">(Gegebener Input &#45;&gt; Max. Erfolg)</text>
</g>
<!-- Min -->
<g id="node2" class="node">
<title>Min</title>
<polygon fill="#e3f2fd" stroke="black" points="816.5,-52 665.5,-52 665.5,-16 816.5,-16 816.5,-52"/>
<text text-anchor="middle" x="741" y="-37.05" font-family="Arial" font-size="11.00">Minimalprinzip</text>
<text text-anchor="middle" x="741" y="-23.55" font-family="Arial" font-size="11.00">(Fixes Ziel &#45;&gt; Min. Aufwand)</text>
</g>
<!-- HO -->
<g id="node3" class="node">
<title>HO</title>
<polygon fill="#bbdefb" stroke="black" points="771.92,-152.74 771.92,-183.5 695.82,-205.24 588.18,-205.24 512.08,-183.5 512.08,-152.74 588.18,-131 695.82,-131 771.92,-152.74"/>
<polygon fill="none" stroke="black" points="775.92,-149.73 775.92,-186.51 696.38,-209.24 587.62,-209.24 508.08,-186.51 508.08,-149.73 587.62,-127 696.38,-127 775.92,-149.73"/>
<text text-anchor="middle" x="642" y="-177.92" font-family="Arial" font-size="11.00">Vollkommene Rationalität</text>
<text text-anchor="middle" x="642" y="-164.42" font-family="Arial" font-size="11.00">Lückenlose Info</text>
<text text-anchor="middle" x="642" y="-150.92" font-family="Arial" font-size="11.00">Egoistische Nutzenmaximierung</text>
</g>
<!-- HO&#45;&gt;Max -->
<g id="edge1" class="edge">
<title>HO&#45;&gt;Max</title>
<path fill="none" stroke="black" stroke-dasharray="5,2" d="M616.95,-126.76C603.92,-105.76 588.33,-80.65 576.77,-62.01"/>
<polygon fill="black" stroke="black" points="579.84,-60.33 571.59,-53.68 573.89,-64.02 579.84,-60.33"/>
</g>
<!-- HO&#45;&gt;Min -->
<g id="edge2" class="edge">
<title>HO&#45;&gt;Min</title>
<path fill="none" stroke="black" stroke-dasharray="5,2" d="M672.24,-126.76C688.12,-105.57 707.14,-80.19 721.14,-61.5"/>
<polygon fill="black" stroke="black" points="723.87,-63.7 727.06,-53.6 718.26,-59.51 723.87,-63.7"/>
</g>
<!-- Sat -->
<g id="node6" class="node">
<title>Sat</title>
<polygon fill="#ffe0b2" stroke="black" points="236.38,-52 15.62,-52 15.62,-16 236.38,-16 236.38,-52"/>
<text text-anchor="middle" x="126" y="-37.05" font-family="Arial" font-size="11.00">Satisficing</text>
<text text-anchor="middle" x="126" y="-23.55" font-family="Arial" font-size="11.00">(Anspruchsniveau erfüllen statt optimieren)</text>
</g>
<!-- HO&#45;&gt;Sat -->
<g id="edge4" class="edge">
<title>HO&#45;&gt;Sat</title>
<path fill="none" stroke="red" d="M504.88,-144.99C427.91,-130.96 330.61,-110.53 246,-84.5 217.57,-75.75 186.55,-62.87 163.18,-52.43"/>
<polygon fill="red" stroke="red" points="504.14,-148.41 514.6,-146.74 505.38,-141.52 504.14,-148.41"/>
<text text-anchor="middle" x="364.74" y="-95.7" font-family="Times New Roman,serif" font-size="14.00">Kritik durch</text>
</g>
<!-- PD -->
<g id="node8" class="node">
<title>PD</title>
<polygon fill="#ffcdd2" stroke="black" points="1033.5,-52 834.5,-52 834.5,-48 830.5,-48 830.5,-44 834.5,-44 834.5,-24 830.5,-24 830.5,-20 834.5,-20 834.5,-16 1033.5,-16 1033.5,-52"/>
<polyline fill="none" stroke="black" points="834.5,-48 838.5,-48 838.5,-44 834.5,-44"/>
<polyline fill="none" stroke="black" points="834.5,-24 838.5,-24 838.5,-20 834.5,-20"/>
<text text-anchor="middle" x="934" y="-37.05" font-family="Arial" font-size="11.00">Gefangenendilemma</text>
<text text-anchor="middle" x="934" y="-23.55" font-family="Arial" font-size="11.00">(Individuelle vs. Kollektive Rationalität)</text>
</g>
<!-- HO&#45;&gt;PD -->
<g id="edge3" class="edge">
<title>HO&#45;&gt;PD</title>
<path fill="none" stroke="black" d="M719.52,-133.38C753.24,-118.57 793.16,-100.86 829,-84.5 848.16,-75.75 869.17,-65.9 887.33,-57.3"/>
<polygon fill="black" stroke="black" points="888.76,-60.5 896.29,-53.05 885.75,-54.17 888.76,-60.5"/>
<text text-anchor="middle" x="874.06" y="-95.7" font-family="Times New Roman,serif" font-size="14.00">führt zu Ineffizienz in...</text>
</g>
<!-- Trans -->
<g id="node4" class="node">
<title>Trans</title>
<polygon fill="#c8e6c9" stroke="black" points="627.75,-320.24 496.25,-320.24 496.25,-284.24 627.75,-284.24 627.75,-320.24"/>
<text text-anchor="middle" x="562" y="-305.29" font-family="Arial" font-size="11.00">Transitivität</text>
<text text-anchor="middle" x="562" y="-291.79" font-family="Arial" font-size="11.00">(A &gt; B, B &gt; C =&gt; A &gt; C)</text>
</g>
<!-- Trans&#45;&gt;HO -->
<g id="edge5" class="edge">
<title>Trans&#45;&gt;HO</title>
<path fill="none" stroke="black" d="M572.46,-283.97C582.39,-267.57 597.81,-242.1 611.61,-219.31"/>
<polygon fill="black" stroke="black" points="614.44,-221.4 616.62,-211.03 608.45,-217.77 614.44,-221.4"/>
<text text-anchor="middle" x="624.36" y="-252.94" font-family="Times New Roman,serif" font-size="14.00">Axiome für</text>
</g>
<!-- Comp -->
<g id="node5" class="node">
<title>Comp</title>
<polygon fill="#c8e6c9" stroke="black" points="795.75,-320.24 646.25,-320.24 646.25,-284.24 795.75,-284.24 795.75,-320.24"/>
<text text-anchor="middle" x="721" y="-305.29" font-family="Arial" font-size="11.00">Vollständigkeit</text>
<text text-anchor="middle" x="721" y="-291.79" font-family="Arial" font-size="11.00">(Alle Optionen vergleichbar)</text>
</g>
<!-- Comp&#45;&gt;HO -->
<g id="edge6" class="edge">
<title>Comp&#45;&gt;HO</title>
<path fill="none" stroke="black" d="M710.67,-283.97C700.91,-267.64 685.77,-242.32 672.19,-219.61"/>
<polygon fill="black" stroke="black" points="675.2,-217.82 667.06,-211.04 669.19,-221.42 675.2,-217.82"/>
</g>
<!-- Heur -->
<g id="node7" class="node">
<title>Heur</title>
<polygon fill="#ffe0b2" stroke="black" points="447.5,-52 254.5,-52 254.5,-16 447.5,-16 447.5,-52"/>
<text text-anchor="middle" x="351" y="-37.05" font-family="Arial" font-size="11.00">Heuristiken &amp; Biases</text>
<text text-anchor="middle" x="351" y="-23.55" font-family="Arial" font-size="11.00">(Systematische Fehlentscheidungen)</text>
</g>
<!-- Instr -->
<g id="node9" class="node">
<title>Instr</title>
<polygon fill="#d1c4e9" stroke="black" points="196.25,-320.24 55.75,-320.24 55.75,-284.24 196.25,-284.24 196.25,-320.24"/>
<text text-anchor="middle" x="126" y="-305.29" font-family="Arial" font-size="11.00">Instrumentelle Rationalität</text>
<text text-anchor="middle" x="126" y="-291.79" font-family="Arial" font-size="11.00">(Wahl der Mittel)</text>
</g>
<!-- Subst -->
<g id="node10" class="node">
<title>Subst</title>
<polygon fill="#d1c4e9" stroke="black" stroke-width="2" points="194.38,-186.12 57.62,-186.12 57.62,-150.12 194.38,-150.12 194.38,-186.12"/>
<text text-anchor="middle" x="126" y="-171.17" font-family="Arial" font-size="11.00">Substanzielle Rationalität</text>
<text text-anchor="middle" x="126" y="-157.67" font-family="Arial" font-size="11.00">(Reflektion der Ziele)</text>
</g>
<!-- Instr&#45;&gt;Subst -->
<g id="edge7" class="edge">
<title>Instr&#45;&gt;Subst</title>
<path fill="none" stroke="black" d="M126,-283.97C126,-262.23 126,-224.57 126,-198.32"/>
<polygon fill="black" stroke="black" points="129.5,-198.33 126,-188.33 122.5,-198.33 129.5,-198.33"/>
<text text-anchor="middle" x="191.25" y="-252.94" font-family="Times New Roman,serif" font-size="14.00">2. Stufe der Rationalität</text>
</g>
<!-- Subst&#45;&gt;Sat -->
<g id="edge8" class="edge">
<title>Subst&#45;&gt;Sat</title>
<path fill="none" stroke="black" stroke-dasharray="1,5" d="M126,-149.3C126,-127.29 126,-89.57 126,-63.51"/>
<polygon fill="black" stroke="black" points="129.5,-63.63 126,-53.63 122.5,-63.63 129.5,-63.63"/>
<text text-anchor="middle" x="179.25" y="-95.7" font-family="Times New Roman,serif" font-size="14.00">erkennt Grenzen an</text>
</g>
</g>
</svg>
