<?xml version="1.0" encoding="UTF-8" standalone="no"?>
<!DOCTYPE svg PUBLIC "-//W3C//DTD SVG 1.1//EN"
 "http://www.w3.org/Graphics/SVG/1.1/DTD/svg11.dtd">
<!-- Generated by graphviz version 12.2.1 (20241206.2353)
 -->
<!-- Pages: 1 -->
<svg width="608pt" height="505pt"
 viewBox="0.00 0.00 608.44 504.50" xmlns="http://www.w3.org/2000/svg" xmlns:xlink="http://www.w3.org/1999/xlink">
<g id="graph0" class="graph" transform="scale(1 1) rotate(0) translate(4 500.5)">
<polygon fill="white" stroke="none" points="-4,4 -4,-500.5 604.44,-500.5 604.44,4 -4,4"/>
<g id="clust1" class="cluster">
<title>cluster_0</title>
<polygon fill="none" stroke="blue" stroke-dasharray="1,5" points="14,-412 14,-488.5 576,-488.5 576,-412 14,-412"/>
<text text-anchor="middle" x="295" y="-471.2" font-family="Times New Roman,serif" font-size="14.00" fill="blue">I. KLASSISCHE SPIELTHEORIE</text>
</g>
<g id="clust2" class="cluster">
<title>cluster_1</title>
<polygon fill="none" stroke="red" stroke-dasharray="1,5" points="8,-273.5 8,-350 395,-350 395,-273.5 8,-273.5"/>
<text text-anchor="middle" x="201.5" y="-332.7" font-family="Times New Roman,serif" font-size="14.00" fill="red">II. VERHALTENSÖKONOMIK</text>
</g>
<g id="clust3" class="cluster">
<title>cluster_2</title>
<polygon fill="none" stroke="darkgreen" stroke-dasharray="1,5" points="266,-8 266,-211.5 488,-211.5 488,-8 266,-8"/>
<text text-anchor="middle" x="377" y="-194.2" font-family="Times New Roman,serif" font-size="14.00" fill="darkgreen">III. SYNTHESE</text>
</g>
<!-- HomoOec -->
<g id="node1" class="node">
<title>HomoOec</title>
<polygon fill="#e3f2fd" stroke="black" points="167.5,-456 22.5,-456 22.5,-420 167.5,-420 167.5,-456"/>
<text text-anchor="middle" x="95" y="-441.05" font-family="Arial" font-size="11.00">Homo Oeconomicus</text>
<text text-anchor="middle" x="95" y="-427.55" font-family="Arial" font-size="11.00">(Vollkommene Rationalität)</text>
</g>
<!-- Biases -->
<g id="node5" class="node">
<title>Biases</title>
<polygon fill="#ffebee" stroke="black" points="173.5,-317.5 16.5,-317.5 16.5,-281.5 173.5,-281.5 173.5,-317.5"/>
<text text-anchor="middle" x="95" y="-302.55" font-family="Arial" font-size="11.00">Systematische Anomalien</text>
<text text-anchor="middle" x="95" y="-289.05" font-family="Arial" font-size="11.00">(Verlustaversion, Heuristiken)</text>
</g>
<!-- HomoOec&#45;&gt;Biases -->
<g id="edge1" class="edge">
<title>HomoOec&#45;&gt;Biases</title>
<path fill="none" stroke="black" d="M95,-419.71C95,-396.84 95,-356.23 95,-328.84"/>
<polygon fill="black" stroke="black" points="98.5,-329.16 95,-319.16 91.5,-329.16 98.5,-329.16"/>
<text text-anchor="middle" x="150.12" y="-377.7" font-family="Times New Roman,serif" font-size="14.00">Empirische Evidenz</text>
<text text-anchor="middle" x="150.12" y="-361.2" font-family="Times New Roman,serif" font-size="14.00">von Abweichungen</text>
</g>
<!-- vNM -->
<g id="node2" class="node">
<title>vNM</title>
<polygon fill="#e3f2fd" stroke="black" points="349.12,-456 210.88,-456 210.88,-420 349.12,-420 349.12,-456"/>
<text text-anchor="middle" x="280" y="-441.05" font-family="Arial" font-size="11.00">vNM&#45;Nutzenmaximierung</text>
<text text-anchor="middle" x="280" y="-427.55" font-family="Arial" font-size="11.00">(Erwartungsnutzen)</text>
</g>
<!-- Prospect -->
<g id="node4" class="node">
<title>Prospect</title>
<polygon fill="#ffebee" stroke="black" points="387.25,-317.5 216.75,-317.5 216.75,-281.5 387.25,-281.5 387.25,-317.5"/>
<text text-anchor="middle" x="302" y="-302.55" font-family="Arial" font-size="11.00">Prospect Theory</text>
<text text-anchor="middle" x="302" y="-289.05" font-family="Arial" font-size="11.00">(Referenzpunkte &amp; Gewichtung)</text>
</g>
<!-- vNM&#45;&gt;Prospect -->
<g id="edge2" class="edge">
<title>vNM&#45;&gt;Prospect</title>
<path fill="none" stroke="black" d="M273.42,-419.81C268.18,-403.64 262.58,-378.87 268.25,-358 271.19,-347.17 276.75,-336.3 282.51,-326.97"/>
<polygon fill="black" stroke="black" points="285.32,-329.06 287.9,-318.79 279.48,-325.21 285.32,-329.06"/>
<text text-anchor="middle" x="361.62" y="-377.7" font-family="Times New Roman,serif" font-size="14.00">andere empirische/psychologische</text>
<text text-anchor="middle" x="361.62" y="-361.2" font-family="Times New Roman,serif" font-size="14.00"> Fundierung der Zielfunktion</text>
</g>
<!-- Nash -->
<g id="node3" class="node">
<title>Nash</title>
<polygon fill="#e3f2fd" stroke="black" points="567.88,-456 392.12,-456 392.12,-420 567.88,-420 567.88,-456"/>
<text text-anchor="middle" x="480" y="-441.05" font-family="Arial" font-size="11.00">Nash&#45;Gleichgewicht</text>
<text text-anchor="middle" x="480" y="-427.55" font-family="Arial" font-size="11.00">(Stabilität durch beste Antworten)</text>
</g>
<!-- QRE -->
<g id="node7" class="node">
<title>QRE</title>
<polygon fill="#e8f5e9" stroke="black" points="478.38,-179 275.62,-179 275.62,-143 478.38,-143 478.38,-179"/>
<text text-anchor="middle" x="377" y="-164.05" font-family="Arial" font-size="11.00">Quantal Response Equilibrium (QRE)</text>
<text text-anchor="middle" x="377" y="-150.55" font-family="Arial" font-size="11.00">(Statistische Modellierung von Fehlern)</text>
</g>
<!-- Nash&#45;&gt;QRE -->
<g id="edge5" class="edge">
<title>Nash&#45;&gt;QRE</title>
<path fill="none" stroke="black" d="M476.68,-419.5C473.4,-403.34 467.89,-378.75 461,-358 440.52,-296.28 408.59,-226.98 390.57,-189.56"/>
<polygon fill="black" stroke="black" points="393.84,-188.28 386.33,-180.81 387.55,-191.33 393.84,-188.28"/>
<text text-anchor="middle" x="529.19" y="-302.7" font-family="Times New Roman,serif" font-size="14.00">Gleichgewichte unter der</text>
<text text-anchor="middle" x="529.19" y="-286.2" font-family="Times New Roman,serif" font-size="14.00"> Annahme der Fehlbarkeit</text>
</g>
<!-- EcoRat -->
<g id="node6" class="node">
<title>EcoRat</title>
<polygon fill="#e8f5e9" stroke="black" points="479.5,-52 274.5,-52 274.5,-16 479.5,-16 479.5,-52"/>
<text text-anchor="middle" x="377" y="-37.05" font-family="Arial" font-size="11.00">Ökologische Rationalität</text>
<text text-anchor="middle" x="377" y="-23.55" font-family="Arial" font-size="11.00">(Heuristiken als funktionale Anpassung)</text>
</g>
<!-- Biases&#45;&gt;EcoRat -->
<g id="edge3" class="edge">
<title>Biases&#45;&gt;EcoRat</title>
<path fill="none" stroke="black" d="M92.33,-281.48C88.47,-250.48 84.9,-184.19 116.75,-143 152.3,-97.02 210.91,-70.46 263.52,-55.19"/>
<polygon fill="black" stroke="black" points="264.14,-58.65 272.84,-52.6 262.27,-51.91 264.14,-58.65"/>
<text text-anchor="middle" x="185.38" y="-164.2" font-family="Times New Roman,serif" font-size="14.00">Umdeutung: Bias als</text>
<text text-anchor="middle" x="185.38" y="-147.7" font-family="Times New Roman,serif" font-size="14.00">effiziente Problemlösung</text>
</g>
<!-- Biases&#45;&gt;QRE -->
<g id="edge4" class="edge">
<title>Biases&#45;&gt;QRE</title>
<path fill="none" stroke="black" d="M131,-281.07C181.92,-256.43 274.97,-211.39 330.89,-184.32"/>
<polygon fill="black" stroke="black" points="332.37,-187.49 339.85,-179.98 329.32,-181.19 332.37,-187.49"/>
<text text-anchor="middle" x="312.13" y="-239.2" font-family="Times New Roman,serif" font-size="14.00">Mathematisierung</text>
<text text-anchor="middle" x="312.13" y="-222.7" font-family="Times New Roman,serif" font-size="14.00">von Verhaltensfehlern</text>
</g>
<!-- QRE&#45;&gt;EcoRat -->
<g id="edge6" class="edge">
<title>QRE&#45;&gt;EcoRat</title>
<path fill="none" stroke="black" d="M377,-142.62C377,-122.19 377,-87.99 377,-63.62"/>
<polygon fill="black" stroke="black" points="380.5,-63.75 377,-53.75 373.5,-63.75 380.5,-63.75"/>
<text text-anchor="middle" x="451.62" y="-100.7" font-family="Times New Roman,serif" font-size="14.00">Rationalität unter</text>
<text text-anchor="middle" x="451.62" y="-84.2" font-family="Times New Roman,serif" font-size="14.00">Unsicherheit &amp; Fehlbarkeit</text>
</g>
</g>
</svg>
