<?xml version="1.0" encoding="UTF-8" standalone="no"?>
<!DOCTYPE svg PUBLIC "-//W3C//DTD SVG 1.1//EN"
 "http://www.w3.org/Graphics/SVG/1.1/DTD/svg11.dtd">
<!-- Generated by graphviz version 12.2.1 (20241206.2353)
 -->
<!-- Title: Spieltheorie_Workflow Pages: 1 -->
<svg width="384pt" height="864pt"
 viewBox="0.00 0.00 383.62 864.00" xmlns="http://www.w3.org/2000/svg" xmlns:xlink="http://www.w3.org/1999/xlink">
<g id="graph0" class="graph" transform="scale(0.909051 0.909051) rotate(0) translate(4 946.44)">
<title>Spieltheorie_Workflow</title>
<polygon fill="white" stroke="none" points="-4,4 -4,-946.44 418,-946.44 418,4 -4,4"/>
<g id="clust1" class="cluster">
<title>cluster_modeling</title>
<polygon fill="none" stroke="blue" stroke-dasharray="5,2" points="8,-598.1 8,-934.44 406,-934.44 406,-598.1 8,-598.1"/>
<text text-anchor="middle" x="207" y="-917.14" font-family="Helvetica,sans-Serif" font-weight="bold" font-size="14.00">1. REALITÄT ABSTRAHIEREN (Modellierung)</text>
</g>
<g id="clust2" class="cluster">
<title>cluster_mechanics</title>
<polygon fill="none" stroke="green" stroke-dasharray="5,2" points="58,-417.65 58,-563.6 357,-563.6 357,-417.65 58,-417.65"/>
<text text-anchor="middle" x="207.5" y="-546.3" font-family="Helvetica,sans-Serif" font-weight="bold" font-size="14.00">2. MECHANIK DER SITUATION BESTIMMEN</text>
</g>
<g id="clust3" class="cluster">
<title>cluster_solution</title>
<polygon fill="none" stroke="orange" stroke-dasharray="5,2" points="48,-236.45 48,-366.65 366,-366.65 366,-236.45 48,-236.45"/>
<text text-anchor="middle" x="207" y="-349.35" font-family="Helvetica,sans-Serif" font-weight="bold" font-size="14.00">3. GLEICHGEWICHT FINDEN (Die Berechnung)</text>
</g>
<g id="clust4" class="cluster">
<title>cluster_output</title>
<polygon fill="none" stroke="purple" stroke-dasharray="5,2" points="78,-8 78,-185.45 336,-185.45 336,-8 78,-8"/>
<text text-anchor="middle" x="207" y="-168.15" font-family="Helvetica,sans-Serif" font-weight="bold" font-size="14.00">4. ERKENNTNISGEWINN (Das &quot;Was&quot;)</text>
</g>
<!-- INPUT -->
<g id="node1" class="node">
<title>INPUT</title>
<ellipse fill="#e3f2fd" stroke="black" cx="207" cy="-849.87" rx="190.71" ry="52.82"/>
<text text-anchor="middle" x="207" y="-852.32" font-family="Helvetica,sans-Serif" font-size="14.00">Komplexe Interaktion</text>
<text text-anchor="middle" x="207" y="-836.57" font-family="Helvetica,sans-Serif" font-size="14.00">(Markt, Sport, Politik, Team, Natur, ...)</text>
</g>
<!-- DEF -->
<g id="node2" class="node">
<title>DEF</title>
<polygon fill="#bbdefb" stroke="black" points="368.48,-728.05 45.53,-728.05 45.53,-606.1 368.48,-606.1 368.48,-728.05"/>
<text text-anchor="middle" x="207" y="-693.15" font-family="Helvetica,sans-Serif" font-size="14.00">Definition des Rahmens:</text>
<text text-anchor="middle" x="207" y="-677.4" font-family="Helvetica,sans-Serif" font-size="14.00">• Wer spielt mit? (Spieler)</text>
<text text-anchor="middle" x="207" y="-661.65" font-family="Helvetica,sans-Serif" font-size="14.00">• Was können sie tun? (Strategien)</text>
<text text-anchor="middle" x="207" y="-645.9" font-family="Helvetica,sans-Serif" font-size="14.00">• Was treibt sie an? (Auszahlungen)</text>
<text text-anchor="middle" x="207" y="-630.15" font-family="Helvetica,sans-Serif" font-size="14.00">• Wie sind die Rahmenbedingungen? (Regeln)</text>
</g>
<!-- INPUT&#45;&gt;DEF -->
<g id="edge1" class="edge">
<title>INPUT&#45;&gt;DEF</title>
<path fill="none" stroke="black" d="M207,-796.58C207,-778.88 207,-758.79 207,-739.84"/>
<polygon fill="black" stroke="black" points="210.5,-740.05 207,-730.05 203.5,-740.05 210.5,-740.05"/>
<text text-anchor="middle" x="252" y="-765.75" font-family="Times New Roman,serif" font-size="14.00">Übersetzung in</text>
<text text-anchor="middle" x="252" y="-749.25" font-family="Times New Roman,serif" font-size="14.00">formale Sprache</text>
</g>
<!-- TYPE -->
<g id="node3" class="node">
<title>TYPE</title>
<polygon fill="#c8e6c9" stroke="black" points="345.23,-531.85 68.78,-531.85 68.78,-425.65 345.23,-425.65 345.23,-531.85"/>
<text text-anchor="middle" x="207" y="-496.95" font-family="Helvetica,sans-Serif" font-size="14.00">Klassifizierung:</text>
<text text-anchor="middle" x="207" y="-481.2" font-family="Helvetica,sans-Serif" font-size="14.00">• Zeit: Gleichzeitig oder nacheinander?</text>
<text text-anchor="middle" x="207" y="-465.45" font-family="Helvetica,sans-Serif" font-size="14.00">• Wissen: Wer weiß was wann?</text>
<text text-anchor="middle" x="207" y="-449.7" font-family="Helvetica,sans-Serif" font-size="14.00">• Verträge: Sind Absprachen bindend?</text>
</g>
<!-- DEF&#45;&gt;TYPE -->
<g id="edge2" class="edge">
<title>DEF&#45;&gt;TYPE</title>
<path fill="none" stroke="black" d="M207,-605.84C207,-585.93 207,-563.71 207,-543.54"/>
<polygon fill="black" stroke="black" points="210.5,-543.77 207,-533.77 203.5,-543.77 210.5,-543.77"/>
<text text-anchor="middle" x="246.38" y="-574.8" font-family="Times New Roman,serif" font-size="14.00">Strukturierung</text>
</g>
<!-- EQUIL -->
<g id="node4" class="node">
<title>EQUIL</title>
<polygon fill="#ffe0b2" stroke="black" stroke-width="2" points="326.85,-334.9 87.15,-334.9 87.15,-244.45 326.85,-244.45 326.85,-334.9"/>
<text text-anchor="middle" x="207" y="-300" font-family="Helvetica,sans-Serif" font-size="14.00">Suche nach Stabilität:</text>
<text text-anchor="middle" x="207" y="-284.25" font-family="Helvetica,sans-Serif" font-size="14.00">&quot;Welches Muster stellt sich ein?&quot;</text>
<text text-anchor="middle" x="207" y="-268.5" font-family="Helvetica,sans-Serif" font-size="14.00">(Nash&#45;Gleichgewicht)</text>
</g>
<!-- TYPE&#45;&gt;EQUIL -->
<g id="edge3" class="edge">
<title>TYPE&#45;&gt;EQUIL</title>
<path fill="none" stroke="black" d="M207,-425.64C207,-401.28 207,-372.22 207,-347.32"/>
<polygon fill="black" stroke="black" points="210.5,-347.35 207,-337.35 203.5,-347.35 210.5,-347.35"/>
<text text-anchor="middle" x="249" y="-394.35" font-family="Times New Roman,serif" font-size="14.00">Mathematische</text>
<text text-anchor="middle" x="249" y="-377.85" font-family="Times New Roman,serif" font-size="14.00">Analyse</text>
</g>
<!-- OUT -->
<g id="node5" class="node">
<title>OUT</title>
<polygon fill="#f3e5f5" stroke="black" points="317.85,-153.7 96.15,-153.7 96.15,-16 317.85,-16 317.85,-153.7"/>
<text text-anchor="middle" x="207" y="-118.8" font-family="Helvetica,sans-Serif" font-size="14.00">Anwendung &amp; Vorhersage:</text>
<text text-anchor="middle" x="207" y="-103.05" font-family="Helvetica,sans-Serif" font-size="14.00">• Wettbewerb</text>
<text text-anchor="middle" x="207" y="-87.3" font-family="Helvetica,sans-Serif" font-size="14.00">• Auktionsdesigns</text>
<text text-anchor="middle" x="207" y="-71.55" font-family="Helvetica,sans-Serif" font-size="14.00">• Tarifverträge</text>
<text text-anchor="middle" x="207" y="-55.8" font-family="Helvetica,sans-Serif" font-size="14.00">• Kooperation in der Evolution</text>
<text text-anchor="middle" x="207" y="-40.05" font-family="Helvetica,sans-Serif" font-size="14.00">• Strategische Beratung</text>
</g>
<!-- EQUIL&#45;&gt;OUT -->
<g id="edge4" class="edge">
<title>EQUIL&#45;&gt;OUT</title>
<path fill="none" stroke="black" d="M207,-243.66C207,-220.58 207,-191.79 207,-165.14"/>
<polygon fill="black" stroke="black" points="210.5,-165.39 207,-155.39 203.5,-165.39 210.5,-165.39"/>
<text text-anchor="middle" x="246" y="-213.15" font-family="Times New Roman,serif" font-size="14.00">Ableitung von</text>
<text text-anchor="middle" x="246" y="-196.65" font-family="Times New Roman,serif" font-size="14.00">Handlungen</text>
</g>
</g>
</svg>
