<?xml version="1.0" encoding="UTF-8" standalone="no"?>
<!DOCTYPE svg PUBLIC "-//W3C//DTD SVG 1.1//EN"
 "http://www.w3.org/Graphics/SVG/1.1/DTD/svg11.dtd">
<!-- Generated by graphviz version 12.2.1 (20241206.2353)
 -->
<!-- Title: Spieltheorie_Methodik Pages: 1 -->
<svg width="864pt" height="269pt"
 viewBox="0.00 0.00 864.00 269.04" xmlns="http://www.w3.org/2000/svg" xmlns:xlink="http://www.w3.org/1999/xlink">
<g id="graph0" class="graph" transform="scale(0.693393 0.693393) rotate(0) translate(4 384)">
<title>Spieltheorie_Methodik</title>
<polygon fill="white" stroke="none" points="-4,4 -4,-384 1242.05,-384 1242.05,4 -4,4"/>
<g id="clust1" class="cluster">
<title>cluster_noncoop</title>
<polygon fill="none" stroke="#e53935" stroke-dasharray="5,2" points="444.85,-256 444.85,-372 947.7,-372 947.7,-256 444.85,-256"/>
<text text-anchor="middle" x="696.27" y="-354.7" font-family="Helvetica,sans-Serif" font-size="14.00" fill="#e53935">Nicht&#45;kooperative Spieltheorie</text>
</g>
<g id="clust2" class="cluster">
<title>cluster_evo</title>
<polygon fill="none" stroke="#43a047" stroke-dasharray="5,2" points="450.85,-132 450.85,-248 947.7,-248 947.7,-132 450.85,-132"/>
<text text-anchor="middle" x="699.27" y="-230.7" font-family="Helvetica,sans-Serif" font-size="14.00" fill="#43a047">Evolutionäre Spieltheorie</text>
</g>
<g id="clust3" class="cluster">
<title>cluster_coop</title>
<polygon fill="none" stroke="#1e88e5" stroke-dasharray="5,2" points="456.1,-8 456.1,-124 936.82,-124 936.82,-8 456.1,-8"/>
<text text-anchor="middle" x="696.46" y="-106.7" font-family="Helvetica,sans-Serif" font-size="14.00" fill="#1e88e5">Kooperative Spieltheorie</text>
</g>
<!-- START -->
<g id="node1" class="node">
<title>START</title>
<polygon fill="#ab82ff" stroke="black" points="160.05,-238.3 0,-178 160.05,-117.7 320.1,-178 160.05,-238.3"/>
<text text-anchor="middle" x="160.05" y="-180.45" font-family="Helvetica,sans-Serif" font-size="14.00">Strategische Situation</text>
<text text-anchor="middle" x="160.05" y="-164.7" font-family="Helvetica,sans-Serif" font-size="14.00">(Interdependenz)</text>
</g>
<!-- NC_HOW -->
<g id="node2" class="node">
<title>NC_HOW</title>
<polygon fill="#ffcdd2" stroke="black" points="674.4,-340.02 452.85,-340.02 452.85,-263.98 674.4,-263.98 674.4,-340.02"/>
<text text-anchor="middle" x="563.62" y="-312.32" font-family="Helvetica,sans-Serif" font-size="14.00">WIE: Fokus auf das Individuum.</text>
<text text-anchor="middle" x="563.62" y="-296.57" font-family="Helvetica,sans-Serif" font-size="14.00">Suche nach stabilen Zuständen,</text>
<text text-anchor="middle" x="563.62" y="-280.82" font-family="Helvetica,sans-Serif" font-size="14.00">wenn jeder nur an sich denkt.</text>
</g>
<!-- START&#45;&gt;NC_HOW -->
<g id="edge1" class="edge">
<title>START&#45;&gt;NC_HOW</title>
<path fill="none" stroke="black" d="M249.18,-205.21C305.7,-222.67 379.85,-245.56 441.83,-264.7"/>
<polygon fill="black" stroke="black" points="440.43,-267.93 451.01,-267.54 442.49,-261.24 440.43,-267.93"/>
<text text-anchor="middle" x="386.47" y="-281.59" font-family="Times New Roman,serif" font-size="14.00">Individuelle</text>
<text text-anchor="middle" x="386.47" y="-265.09" font-family="Times New Roman,serif" font-size="14.00">Entscheidungen</text>
</g>
<!-- E_HOW -->
<g id="node4" class="node">
<title>E_HOW</title>
<polygon fill="#c8e6c9" stroke="black" points="668.4,-216.03 458.85,-216.03 458.85,-139.97 668.4,-139.97 668.4,-216.03"/>
<text text-anchor="middle" x="563.62" y="-188.32" font-family="Helvetica,sans-Serif" font-size="14.00">WIE: Fokus auf Selektion.</text>
<text text-anchor="middle" x="563.62" y="-172.57" font-family="Helvetica,sans-Serif" font-size="14.00">Erfolgreiche Muster (Fitness)</text>
<text text-anchor="middle" x="563.62" y="-156.82" font-family="Helvetica,sans-Serif" font-size="14.00">verdrängen schwache Muster.</text>
</g>
<!-- START&#45;&gt;E_HOW -->
<g id="edge4" class="edge">
<title>START&#45;&gt;E_HOW</title>
<path fill="none" stroke="black" d="M321.49,-178C363.45,-178 407.85,-178 446.97,-178"/>
<polygon fill="black" stroke="black" points="446.88,-181.5 456.88,-178 446.88,-174.5 446.88,-181.5"/>
<text text-anchor="middle" x="386.47" y="-197.7" font-family="Times New Roman,serif" font-size="14.00">Lern&#45; und</text>
<text text-anchor="middle" x="386.47" y="-181.2" font-family="Times New Roman,serif" font-size="14.00">Selektionsprozess</text>
</g>
<!-- C_HOW -->
<g id="node6" class="node">
<title>C_HOW</title>
<polygon fill="#bbdefb" stroke="black" points="663.15,-92.03 464.1,-92.03 464.1,-15.98 663.15,-15.98 663.15,-92.03"/>
<text text-anchor="middle" x="563.62" y="-64.33" font-family="Helvetica,sans-Serif" font-size="14.00">WIE: Fokus auf die Gruppe.</text>
<text text-anchor="middle" x="563.62" y="-48.58" font-family="Helvetica,sans-Serif" font-size="14.00">Analyse von Koalitionen und</text>
<text text-anchor="middle" x="563.62" y="-32.83" font-family="Helvetica,sans-Serif" font-size="14.00">bindenden Verträgen.</text>
</g>
<!-- START&#45;&gt;C_HOW -->
<g id="edge7" class="edge">
<title>START&#45;&gt;C_HOW</title>
<path fill="none" stroke="black" d="M249.18,-150.79C309.09,-132.29 388.78,-107.68 452.82,-87.91"/>
<polygon fill="black" stroke="black" points="453.8,-91.27 462.32,-84.97 451.74,-84.58 453.8,-91.27"/>
<text text-anchor="middle" x="386.47" y="-139.42" font-family="Times New Roman,serif" font-size="14.00">Verhandelbare</text>
<text text-anchor="middle" x="386.47" y="-122.92" font-family="Times New Roman,serif" font-size="14.00">Verträge</text>
</g>
<!-- NC_WHAT -->
<g id="node3" class="node">
<title>NC_WHAT</title>
<polygon fill="#ffebee" stroke="black" points="939.7,-340.02 711.4,-340.02 711.4,-263.98 939.7,-263.98 939.7,-340.02"/>
<text text-anchor="middle" x="825.55" y="-312.32" font-family="Helvetica,sans-Serif" font-size="14.00">WAS: Vorhersage von Konflikten,</text>
<text text-anchor="middle" x="825.55" y="-296.57" font-family="Helvetica,sans-Serif" font-size="14.00">Preiskämpfen oder dem</text>
<text text-anchor="middle" x="825.55" y="-280.82" font-family="Helvetica,sans-Serif" font-size="14.00">Versagen von Kooperation.</text>
</g>
<!-- NC_HOW&#45;&gt;NC_WHAT -->
<g id="edge2" class="edge">
<title>NC_HOW&#45;&gt;NC_WHAT</title>
<path fill="none" stroke="black" d="M674.86,-302C683.13,-302 691.52,-302 699.87,-302"/>
<polygon fill="black" stroke="black" points="699.72,-305.5 709.72,-302 699.72,-298.5 699.72,-305.5"/>
</g>
<!-- END -->
<g id="node8" class="node">
<title>END</title>
<ellipse fill="#ffeb3b" stroke="black" cx="1107.37" cy="-178" rx="130.67" ry="42.64"/>
<text text-anchor="middle" x="1107.37" y="-180.45" font-family="Helvetica,sans-Serif" font-size="14.00">Ergebnis: Systemstabilität</text>
<text text-anchor="middle" x="1107.37" y="-164.7" font-family="Helvetica,sans-Serif" font-size="14.00">(Gleichgewicht)</text>
</g>
<!-- NC_WHAT&#45;&gt;END -->
<g id="edge3" class="edge">
<title>NC_WHAT&#45;&gt;END</title>
<path fill="none" stroke="black" d="M920.97,-263.51C930.03,-259.68 939.05,-255.8 947.7,-252 972.05,-241.3 998.29,-229.27 1022.29,-218.07"/>
<polygon fill="black" stroke="black" points="1023.48,-221.38 1031.05,-213.97 1020.51,-215.04 1023.48,-221.38"/>
</g>
<!-- E_WHAT -->
<g id="node5" class="node">
<title>E_WHAT</title>
<polygon fill="#e8f5e9" stroke="black" points="939.7,-216.03 711.4,-216.03 711.4,-139.97 939.7,-139.97 939.7,-216.03"/>
<text text-anchor="middle" x="825.55" y="-188.32" font-family="Helvetica,sans-Serif" font-size="14.00">WAS: Verstehen von Traditionen,</text>
<text text-anchor="middle" x="825.55" y="-172.57" font-family="Helvetica,sans-Serif" font-size="14.00">biologischen Instinkten und</text>
<text text-anchor="middle" x="825.55" y="-156.82" font-family="Helvetica,sans-Serif" font-size="14.00">langfristigen Trends.</text>
</g>
<!-- E_HOW&#45;&gt;E_WHAT -->
<g id="edge5" class="edge">
<title>E_HOW&#45;&gt;E_WHAT</title>
<path fill="none" stroke="black" d="M668.85,-178C679.01,-178 689.4,-178 699.74,-178"/>
<polygon fill="black" stroke="black" points="699.41,-181.5 709.41,-178 699.41,-174.5 699.41,-181.5"/>
</g>
<!-- E_WHAT&#45;&gt;END -->
<g id="edge6" class="edge">
<title>E_WHAT&#45;&gt;END</title>
<path fill="none" stroke="black" d="M939.96,-178C948.19,-178 956.54,-178 964.91,-178"/>
<polygon fill="black" stroke="black" points="964.79,-181.5 974.79,-178 964.79,-174.5 964.79,-181.5"/>
</g>
<!-- C_WHAT -->
<g id="node7" class="node">
<title>C_WHAT</title>
<polygon fill="#e3f2fd" stroke="black" points="928.82,-92.03 722.27,-92.03 722.27,-15.98 928.82,-15.98 928.82,-92.03"/>
<text text-anchor="middle" x="825.55" y="-64.33" font-family="Helvetica,sans-Serif" font-size="14.00">WAS: Faire Aufteilung von</text>
<text text-anchor="middle" x="825.55" y="-48.58" font-family="Helvetica,sans-Serif" font-size="14.00">gemeinsamen Gewinnen und</text>
<text text-anchor="middle" x="825.55" y="-32.83" font-family="Helvetica,sans-Serif" font-size="14.00">stabile Allianzen.</text>
</g>
<!-- C_HOW&#45;&gt;C_WHAT -->
<g id="edge8" class="edge">
<title>C_HOW&#45;&gt;C_WHAT</title>
<path fill="none" stroke="black" d="M663.63,-54C678.99,-54 694.95,-54 710.61,-54"/>
<polygon fill="black" stroke="black" points="710.42,-57.5 720.42,-54 710.42,-50.5 710.42,-57.5"/>
</g>
<!-- C_WHAT&#45;&gt;END -->
<g id="edge9" class="edge">
<title>C_WHAT&#45;&gt;END</title>
<path fill="none" stroke="black" d="M913.17,-92.39C946.63,-107.21 984.86,-124.15 1018.44,-139.03"/>
<polygon fill="black" stroke="black" points="1016.76,-142.12 1027.32,-142.97 1019.6,-135.72 1016.76,-142.12"/>
</g>
</g>
</svg>
